<svg xmlns="http://www.w3.org/2000/svg" version="1.1" xmlns:xlink="http://www.w3.org/1999/xlink" xmlns:svgjs="http://svgjs.dev/svgjs" width="1000" height="643" viewBox="0 0 1000 643"><g transform="matrix(1,0,0,1,0.12719211643110384,0.26032388663963957)"><svg viewBox="0 0 384 247" data-background-color="#141414" preserveAspectRatio="xMidYMid meet" height="643" width="1000" xmlns="http://www.w3.org/2000/svg" xmlns:xlink="http://www.w3.org/1999/xlink"><defs></defs><g id="tight-bounds" transform="matrix(1,0,0,1,-0.048841772709550924,-0.09999999999999432)"><svg viewBox="0 0 384.09768206764164 247.2" height="247.2" width="384.09768206764164"><g><svg viewBox="0 0 395.52 254.55124715587775" height="247.2" width="384.09768206764164"><g transform="matrix(1,0,0,1,0,157.32288283189413)"><svg viewBox="0 0 395.52 97.22836432398361" height="97.22836432398361" width="395.52"><g><svg viewBox="0 0 395.52 97.22836432398361" height="97.22836432398361" width="395.52"><g><svg viewBox="0 0 395.52 97.22836432398361" height="97.22836432398361" width="395.52"><g transform="matrix(1,0,0,1,0,0)"><svg width="395.52" viewBox="2 -38 158.63999938964844 39" height="97.22836432398361" data-palette-color="#4db5ff"><path d="M29.6-3Q30.3-1.9 30.93-1.4 31.55-0.9 32.45-0.9L32.45-0.9Q33.2-0.9 34.2-1.25L34.2-1.25 34.2 0 22.15 0 22.15-1.25Q23.15-0.95 23.9-0.95L23.9-0.95Q24.75-0.95 25.28-1.28 25.8-1.6 25.8-2.15L25.8-2.15Q25.8-2.55 25.5-3L25.5-3 14.1-21.45 9.5-16.45 9.5-3Q9.5-2 10.03-1.48 10.55-0.95 11.5-0.95L11.5-0.95Q12.3-0.95 13.25-1.25L13.25-1.25 13.25 0 2 0 2-1.25Q2.95-0.95 3.75-0.95L3.75-0.95Q4.7-0.95 5.23-1.48 5.75-2 5.75-3L5.75-3 5.75-34Q5.75-35 5.23-35.52 4.7-36.05 3.75-36.05L3.75-36.05Q2.95-36.05 2-35.75L2-35.75 2-37 13.25-37 13.25-35.75Q12.3-36.05 11.5-36.05L11.5-36.05Q10.55-36.05 10.03-35.52 9.5-35 9.5-34L9.5-34 9.5-17.85 23.8-34Q24.25-34.55 24.25-34.95L24.25-34.95Q24.25-35.45 23.85-35.75 23.45-36.05 22.75-36.05L22.75-36.05Q22.1-36.05 21.3-35.75L21.3-35.75 21.3-37 31.35-37 31.35-35.75Q30.5-36 29.85-36L29.85-36Q28.8-36 27.75-35.52 26.7-35.05 25.85-34.2L25.85-34.2 16.75-24.35 29.6-3ZM57.15-2Q57.5-0.7 58.95-0.7L58.95-0.7Q59.9-0.7 61.45-1.25L61.45-1.25 61.45 0 49.4 0 49.4-1.25Q50.85-0.75 51.9-0.75L51.9-0.75Q53.1-0.75 53.1-1.6L53.1-1.6Q53.1-1.85 53.05-2L53.05-2 48.55-16.25 37.95-16.25Q36.15-10.25 34.5-4.25L34.5-4.25 34.15-3Q34.05-2.7 34.05-2.25L34.05-2.25Q34.05-0.8 35.85-0.8L35.85-0.8Q36.85-0.8 38.15-1.25L38.15-1.25 38.15 0 27.7 0 27.7-1.25Q28.9-0.8 30-0.8L30-0.8Q31.5-0.8 32.15-2L32.15-2Q32.5-2.7 32.75-3.45L32.75-3.45 43.35-38 46.25-38 57.15-2ZM43.05-33.55L38.2-17.15 48.25-17.15 43.05-33.55ZM62.45-1.25Q63.4-0.95 64.2-0.95L64.2-0.95Q65.15-0.95 65.67-1.48 66.2-2 66.2-3L66.2-3 66.2-34Q66.2-35 65.67-35.52 65.15-36.05 64.2-36.05L64.2-36.05Q63.4-36.05 62.45-35.75L62.45-35.75 62.45-37 70-37 69.95-3Q69.95-2 70.47-1.48 71-0.95 71.95-0.95L71.95-0.95Q72.75-0.95 73.7-1.25L73.7-1.25 73.7 0 62.45 0 62.45-1.25ZM72.45-15.8Q72.95-15.75 73.9-15.75L73.9-15.75Q78.5-15.75 80.9-18.43 83.3-21.1 83.3-25.2L83.3-25.2Q83.3-27.8 82.1-30.43 80.9-33.05 78.6-34.77 76.3-36.5 73.15-36.5L73.15-36.5Q72-36.5 71.4-36.45 70.8-36.4 70-36.1L70-36.1 70-37 74-37Q77.4-37 80.52-35.7 83.65-34.4 85.65-31.8 87.65-29.2 87.65-25.5L87.65-25.5Q87.65-22.65 85.95-20.18 84.25-17.7 81.35-16.25 78.45-14.8 75.15-14.8L75.15-14.8Q73.55-14.8 72.45-15.05L72.45-15.05 72.45-15.8ZM107.99 1Q102.94 1 99.24-1.68 95.54-4.35 93.62-8.85 91.69-13.35 91.64-18.75L91.64-18.75Q91.59-23 93.19-27.43 94.79-31.85 98.34-34.93 101.89-38 107.49-38L107.49-38Q113.14-38 116.77-35.08 120.39-32.15 122.02-27.75 123.64-23.35 123.64-18.75L123.64-18.75Q123.64-13.3 121.89-8.83 120.14-4.35 116.62-1.68 113.09 1 107.99 1L107.99 1ZM107.99 0Q114.04 0 116.77-5.23 119.49-10.45 119.44-18.75L119.44-18.75Q119.39-23.05 118.12-27.25 116.84-31.45 114.17-34.23 111.49-37 107.49-37L107.49-37Q103.44-37 100.84-33.98 98.24-30.95 97.07-26.6 95.89-22.25 95.89-18.2L95.89-18.2Q95.89-13.1 97.22-9 98.54-4.9 101.27-2.45 103.99 0 107.99 0L107.99 0ZM144.99 1Q139.94 1 136.24-1.68 132.54-4.35 130.62-8.85 128.69-13.35 128.64-18.75L128.64-18.75Q128.59-23 130.19-27.43 131.79-31.85 135.34-34.93 138.89-38 144.49-38L144.49-38Q150.14-38 153.77-35.08 157.39-32.15 159.02-27.75 160.64-23.35 160.64-18.75L160.64-18.75Q160.64-13.3 158.89-8.83 157.14-4.35 153.62-1.68 150.09 1 144.99 1L144.99 1ZM144.99 0Q151.04 0 153.77-5.23 156.49-10.45 156.44-18.75L156.44-18.75Q156.39-23.05 155.12-27.25 153.84-31.45 151.17-34.23 148.49-37 144.49-37L144.49-37Q140.44-37 137.84-33.98 135.24-30.95 134.07-26.6 132.89-22.25 132.89-18.2L132.89-18.2Q132.89-13.1 134.22-9 135.54-4.9 138.27-2.45 140.99 0 144.99 0L144.99 0Z" opacity="1" transform="matrix(1,0,0,1,0,0)" fill="#4db5ff" class="undefined-text-0" data-fill-palette-color="primary" id="text-0"></path></svg></g></svg></g></svg></g></svg></g><g transform="matrix(1,0,0,1,122.56718254837125,0)"><svg viewBox="0 0 150.38563490325748 134.36959949574538" height="134.36959949574538" width="150.38563490325748"><g><svg xmlns="http://www.w3.org/2000/svg" xmlns:xlink="http://www.w3.org/1999/xlink" version="1.1" x="8" y="0" viewBox="0 0 99.99992370605469 99.98799133300781" enable-background="new 0 0 100 100" xml:space="preserve" height="134.36959949574538" width="134.38563490325748" class="icon-icon-0" data-fill-palette-color="accent" id="icon-0"><g fill="#39fed0" data-fill-palette-color="accent"><path fill-rule="evenodd" clip-rule="evenodd" d="M47.102 0c1.928 0 3.856 0 5.784 0 8.338 0.642 15.042 2.917 20.99 5.95-9.545 9.958-19.296 19.708-29.253 29.252-2.969-3.846-6.214-6.932-13.221-6.279-6.848 0.638-12.008 6.789-12.065 13.552-0.093 11.1 12.636 17.426 21.981 11.239 2.455-1.625 4.708-4.378 6.941-6.611 6.658-6.659 13.369-13.473 19.997-20.164 5.471 4.927 10.706 10.542 16.196 16.032 0.574 0.574 2.305 1.916 2.314 2.148 0.021 0.503-3.571 3.738-3.967 4.132-4.035 4.035-8.129 8.161-12.23 11.9-2.845-5.982-12.565-8.104-18.84-4.297-3.834 2.326-6.286 6.06-6.446 11.238-0.221 7.125 4.855 13.32 11.9 14.047 9.767 1.009 13.735-5.969 18.51-10.742 8.042-8.042 16.394-16.425 24.295-23.963 0.308 16.392-5.383 28.214-13.388 36.524-8.017 8.322-18.679 14.98-33.715 16.03-1.928 0-3.855 0-5.784 0-14.023-1.231-24.828-6.812-32.558-14.543C6.814 77.715 1.225 66.916 0 52.887c0-1.929 0-3.857 0-5.785C0.812 33.583 7.182 22 14.709 14.544 22.682 6.645 33.328 1.089 47.102 0z" fill="#39fed0" data-fill-palette-color="accent"></path></g></svg></g></svg></g><g><rect width="116.85602358219208" height="8.768154234408826" y="124.60144526133655" x="272.95281745162873" fill="#39fed0" data-fill-palette-color="accent"></rect><rect width="116.85602358219208" height="8.768154234408826" y="124.60144526133655" x="5.71115896617917" fill="#39fed0" data-fill-palette-color="accent"></rect><rect width="116.85602358219208" height="8.768154234408826" y="107.0651367925189" x="272.95281745162873" fill="#39fed0" data-fill-palette-color="accent"></rect><rect width="116.85602358219208" height="8.768154234408826" y="107.0651367925189" x="5.71115896617917" fill="#39fed0" data-fill-palette-color="accent"></rect></g></svg></g></svg><rect width="384.09768206764164" height="247.2" fill="none" stroke="none" visibility="hidden"></rect></g></svg></g></svg>